<?xml version="1.0" encoding="UTF-8" standalone="no"?>
<!-- Created with Inkscape (http://www.inkscape.org/) -->

<svg
   width="285.28842mm"
   height="121.34317mm"
   viewBox="0 0 1078.2555 458.61987"
   version="1.1"
   id="svg1"
   xmlns="http://www.w3.org/2000/svg"
   xmlns:svg="http://www.w3.org/2000/svg">
  <defs
     id="defs1" />
  <g
     id="layer1"
     transform="translate(-22.132128,-167.54046)">
    <g
       id="g2"
       transform="matrix(6.256434,0,0,6.256434,-94.895171,-430.64336)"
       style="fill:#000000;fill-opacity:1;stroke:none">
      <circle
         style="fill:#000000;fill-opacity:1;fill-rule:evenodd;stroke:#000000;stroke-width:0.860442;stroke-dasharray:none;stroke-opacity:1"
         id="path1-4"
         cx="-23.369707"
         cy="-137.46286"
         r="4.0439758"
         transform="scale(-1)" />
      <path
         id="path4-2"
         style="fill:#000000;fill-opacity:1;stroke:#000000;stroke-width:0.860442;stroke-linejoin:bevel;stroke-dasharray:none;stroke-opacity:1;paint-order:fill markers stroke"
         d="m 89.37181,146.40017 c 0,0 -3.52072,0.56659 -3.420139,-1.84733 0.0042,-0.94959 0.05573,-14.68304 -0.02629,-15.79439 l 12.401645,-12.36585 -0.0056,-0.0263 c 0.300264,-0.0891 0.615086,-0.075 0.97272,0.34185 0.904594,1.05441 -0.311223,16.20854 -0.02851,16.73664 0.333156,0.62223 2.186974,1.90795 2.186974,1.90795 0,0 -1.603542,0.81889 -2.202801,1.67761 -0.333976,0.47857 -0.904687,15.66888 1.997301,14.85061 0.16534,-0.0466 14.38629,-6.20472 14.38629,-6.20472 -0.1997,3.67256 1.07579,6.06901 2.92936,6.24197 l 5.42995,-5.34157 c 0,0 -2.84973,0.34643 -3.02091,-1.76112 -0.0774,-0.95332 -0.33787,-28.82387 -0.35768,-29.74577 -0.0592,-2.75663 -1.05728,-4.94795 -2.84902,-4.62816 -2.57098,0.45886 -12.39819,7.17004 -12.65462,6.95514 -0.26773,-0.22437 -0.1048,-2.54698 -0.50985,-3.44969 -0.44919,-1.00103 -1.94247,-4.00102 -3.27999,-3.44214 -1.846784,0.77168 -4.917893,3.81679 -5.043776,3.94201 -8.501859,8.43624 -16.981488,16.89675 -25.474084,25.34285 -4.540712,2.64751 -9.758605,-4.40055 -10.288442,-5.75817 -0.981295,-2.51439 -1.539096,-7.60124 1.111507,-11.15037 2.155741,-2.88653 4.479714,-7.48503 12.178367,-8.87258 8.603326,-1.5506 7.295529,11.099 7.295529,11.099 l 4.378581,-4.46794 c 0,0 0.127447,-6.05252 -3.702667,-8.75084 -6.336096,-4.46379 -21.206713,2.0511 -25.328968,12.04251 -1.903391,4.61339 -1.393254,11.00445 2.279259,15.3685 2.446793,2.90753 5.780354,5.6075 9.246814,7.28627 0.127965,0.062 13.034942,-12.92659 13.034942,-12.92659 0.04047,0.32776 -0.258786,13.59158 -0.01842,14.83744 0.453875,2.35249 2.620099,3.83885 3.215095,3.20021 0.971984,-0.82974 2.346315,-2.52333 5.167435,-5.29704 z m 17.47766,1.17039 c -0.65129,0.0414 -1.3485,-0.2622 -1.56074,-1.29899 -0.2469,-1.2061 -0.44311,-8.82907 -0.0894,-9.40922 0.34493,-0.56568 2.47454,-1.61333 2.47454,-1.61333 0,0 -2.7827,-1.23074 -2.78376,-2.09104 -0.009,-7.18219 -0.078,-10.78243 0.0669,-14.22851 0.0237,-0.56348 6.90431,-2.97276 7.3642,-3.17675 2.62099,-1.16257 2.45555,0.4848 2.58191,1.20866 0.16154,0.92546 0.60759,26.07412 0,27.21013 -0.6161,1.15192 -5.82029,2.88813 -6.25537,3.0158 -0.52195,0.15317 -1.07705,0.33742 -1.79837,0.38325 z" />
      <path
         id="path1-3-7"
         style="fill:#000000;fill-opacity:1;fill-rule:evenodd;stroke:#000000;stroke-width:0.860442;stroke-dasharray:none;stroke-opacity:1"
         d="m 143.5583,152.0471 a 20.853926,20.853926 0 0 0 20.25624,-16.20988 h -5.11524 a 15.855788,15.855788 0 0 1 -15.141,11.2118 15.855788,15.855788 0 0 1 -15.66101,-13.38039 h 31.32201 a 15.855788,15.855788 0 0 1 0,2.4e-4 h 5.0157 a 20.853926,20.853926 0 0 0 0,-2.4e-4 20.853926,20.853926 0 0 0 0.17708,-2.47532 20.853926,20.853926 0 0 0 0,-2.4e-4 20.853926,20.853926 0 0 0 -0.17708,-2.47531 20.853926,20.853926 0 0 0 -20.6767,-18.37848 20.853926,20.853926 0 0 0 -20.27728,16.21013 h 5.13603 a 15.855788,15.855788 0 0 1 15.14125,-11.2118 15.855788,15.855788 0 0 1 15.661,13.38015 h -22.86607 -8.45594 -5.01594 a 20.853926,20.853926 0 0 0 -0.17708,2.47506 20.853926,20.853926 0 0 0 0,2.5e-4 20.853926,20.853926 0 0 0 0,2.4e-4 20.853926,20.853926 0 0 0 0,2.5e-4 20.853926,20.853926 0 0 0 0,2.4e-4 20.853926,20.853926 0 0 0 0,2.4e-4 20.853926,20.853926 0 0 0 0,2.5e-4 20.853926,20.853926 0 0 0 0,2.5e-4 20.853926,20.853926 0 0 0 0,2.4e-4 20.853926,20.853926 0 0 0 0,2.4e-4 20.853926,20.853926 0 0 0 0.1536,2.47361 h 0.0235 a 20.853926,20.853926 0 0 0 20.67695,18.37847 z" />
      <path
         style="fill:#000000;fill-opacity:1;stroke:#000000;stroke-width:0.860442;stroke-linejoin:bevel;stroke-dasharray:none;stroke-opacity:1;paint-order:fill markers stroke"
         d="M 179.44156,155.22423 V 96.425291 l -5.54032,6.523289 0.0112,26.59579 -8.87409,-8.95438 -0.96406,0.94931 9.55506,9.57362 -9.44554,9.47904 v 3.90905 l 9.71848,-9.68688 0.0158,24.35278 11.68936,-0.0641 5.18289,-3.88941 z"
         id="path5-7" />
      <path
         id="path3-9"
         style="fill:#000000;fill-opacity:1;fill-rule:nonzero;stroke:#000000;stroke-width:0.860442;stroke-dasharray:none;stroke-opacity:1;paint-order:fill markers stroke"
         d="m 42.302372,168.7173 c 4.298888,-8.3246 4.976531,-9.20229 13.315441,-13.52897 l -7.731852,-0.008 -0.0042,-43.976 c 3.577284,0.87244 6.560143,1.58195 9.249735,1.68784 8.028285,-0.44751 10.336506,-3.89539 13.677258,-12.41236 l -4.14849,-4.054749 c -3.114961,11.043949 -11.01774,13.033929 -18.769494,12.743259 -7.751754,-0.29068 -10.406871,-2.97117 -15.003765,-3.15216 -8.028285,0.44751 -10.336506,3.89539 -13.677257,12.41236 l 4.148489,4.05475 c 3.127763,-11.08935 9.232288,-14.52698 18.959414,-11.92061 0.0042,14.78147 0.02949,29.54306 0.04406,44.59987 l -8.009179,0.0331 3.937876,3.90574 4.021146,-0.0114 z" />
    </g>
  </g>
</svg>
